# Blender v2.79 (sub 0) OBJ File: 'fregatte.blend'
# www.blender.org
mtllib ship.mtl
o Cube
v 2.001068 -1.000000 -1.000000
v 2.001068 -1.000000 1.000000
v -2.001068 -1.000000 1.000000
v -2.001067 -1.000000 -1.000000
v 2.001068 0.493161 -0.999999
v 2.001067 0.493161 1.000001
v -2.001068 1.000000 1.000000
v -2.001068 1.000000 -1.000000
v -0.000001 0.493161 1.000000
v 0.000000 0.493161 -1.000000
v -1.000534 1.000000 1.000000
v -1.000534 1.000000 -1.000000
vn 0.0000 -1.0000 0.0000
vn 0.0000 1.0000 -0.0000
vn 1.0000 -0.0000 0.0000
vn -0.0000 -0.0000 1.0000
vn -1.0000 -0.0000 -0.0000
vn 0.0000 0.0000 -1.0000
vn 0.4519 0.8921 0.0000
usemtl Material
s off
f 1//1 2//1 4//1
f 5//2 10//2 6//2
f 1//3 5//3 2//3
f 2//4 6//4 9//4
f 3//5 7//5 4//5
f 5//6 1//6 10//6
f 10//7 12//7 9//7
f 8//2 7//2 11//2
f 9//7 12//7 11//7
f 3//4 9//4 11//4
f 11//4 7//4 3//4
f 10//6 4//6 12//6
f 12//6 4//6 8//6
f 10//6 1//6 4//6
f 9//4 3//4 2//4
f 11//2 12//2 8//2
f 2//3 5//3 6//3
f 6//2 10//2 9//2
f 4//5 7//5 8//5
f 4//1 2//1 3//1
